<svg width="24" height="24" viewBox="0 0 24 24" fill="none" xmlns="http://www.w3.org/2000/svg">
	<path d="M18.0802 12.42L11.9002 18.61C11.09 19.33 10.0353 19.7133 8.95188 19.6814C7.86846 19.6495 6.83816 19.2049 6.07173 18.4384C5.30531 17.672 4.86067 16.6417 4.82878 15.5583C4.79688 14.4749 5.18014 13.4202 5.90016 12.61L13.9002 4.61C14.3778 4.1563 15.0114 3.90333 15.6702 3.90333C16.3289 3.90333 16.9625 4.1563 17.4402 4.61C17.9055 5.08159 18.1664 5.71747 18.1664 6.38C18.1664 7.04253 17.9055 7.67841 17.4402 8.15L10.5402 15.04C10.4719 15.1135 10.3898 15.1729 10.2985 15.2147C10.2073 15.2565 10.1087 15.28 10.0084 15.2837C9.90816 15.2874 9.80812 15.2713 9.71405 15.2364C9.61997 15.2014 9.5337 15.1483 9.46016 15.08C9.38662 15.0117 9.32725 14.9296 9.28544 14.8384C9.24363 14.7471 9.2202 14.6486 9.21648 14.5483C9.21277 14.448 9.22885 14.348 9.26379 14.2539C9.29874 14.1598 9.35187 14.0735 9.42016 14L14.5502 8.88C14.7385 8.6917 14.8443 8.4363 14.8443 8.17C14.8443 7.9037 14.7385 7.6483 14.5502 7.46C14.3619 7.2717 14.1065 7.16591 13.8402 7.16591C13.5739 7.16591 13.3185 7.2717 13.1302 7.46L8.00016 12.6C7.74346 12.8547 7.53973 13.1577 7.40069 13.4915C7.26166 13.8253 7.19008 14.1834 7.19008 14.545C7.19008 14.9066 7.26166 15.2647 7.40069 15.5985C7.53973 15.9323 7.74346 16.2353 8.00016 16.49C8.52453 16.9895 9.22097 17.2681 9.94516 17.2681C10.6694 17.2681 11.3658 16.9895 11.8902 16.49L18.7802 9.59C19.575 8.73695 20.0078 7.60867 19.9872 6.44286C19.9666 5.27706 19.4944 4.16475 18.6699 3.34027C17.8454 2.51579 16.7331 2.04352 15.5673 2.02295C14.4015 2.00238 13.2732 2.43512 12.4202 3.23L4.42016 11.23C3.34136 12.4248 2.76519 13.9899 2.81169 15.599C2.8582 17.2081 3.52379 18.7372 4.6698 19.8678C5.8158 20.9983 7.35384 21.6431 8.96344 21.6677C10.5731 21.6923 12.1301 21.0949 13.3102 20L19.5002 13.82C19.5934 13.7268 19.6674 13.6161 19.7178 13.4942C19.7683 13.3724 19.7943 13.2419 19.7943 13.11C19.7943 12.9781 19.7683 12.8476 19.7178 12.7257C19.6674 12.6039 19.5934 12.4932 19.5002 12.4C19.4069 12.3068 19.2962 12.2328 19.1744 12.1823C19.0526 12.1319 18.922 12.1059 18.7902 12.1059C18.6583 12.1059 18.5277 12.1319 18.4059 12.1823C18.2841 12.2328 18.1734 12.3068 18.0802 12.4V12.42Z" fill="#212329" />
</svg>
